HIERARCHY
ROOT Hips
{
  OFFSET 3.13124 94.3669 -3.18751
  CHANNELS  6 Xposition Yposition Zposition Zrotation Xrotation Yrotation
  JOINT LeftUpLeg
  {
    OFFSET 8.64259 1.95398 -2.38835
    CHANNELS 3 Zrotation Xrotation Yrotation
    JOINT LeftLeg
    {
      OFFSET 43.7702 0 0
      CHANNELS 3 Zrotation Xrotation Yrotation
      JOINT LeftFoot
      {
        OFFSET 40.6238 0 0
        CHANNELS 3 Zrotation Xrotation Yrotation
        JOINT LeftToeBase
        {
          OFFSET 12.7242 0 0
          CHANNELS 3 Zrotation Xrotation Yrotation
          End Site
          {
            OFFSET 0 0 0
          }
        }
      }
    }
  }
  JOINT RightUpLeg
  {
    OFFSET -8.2249 1.95398 -2.59336
    CHANNELS 3 Zrotation Xrotation Yrotation
    JOINT RightLeg
    {
      OFFSET 43.5653 0 0
      CHANNELS 3 Zrotation Xrotation Yrotation
      JOINT RightFoot
      {
        OFFSET 40.6238 0 0
        CHANNELS 3 Zrotation Xrotation Yrotation
        JOINT RightToeBase
        {
          OFFSET 12.7242 0 0
          CHANNELS 3 Zrotation Xrotation Yrotation
          End Site
          {
            OFFSET 0 0 0
          }
        }
      }
    }
  }
  JOINT Spine
  {
    OFFSET 0.165834 0.87714 6.61349
    CHANNELS 3 Zrotation Xrotation Yrotation
    JOINT Spine1
    {
      OFFSET 7.38962 1.71661e-005 0
      CHANNELS 3 Zrotation Xrotation Yrotation
      JOINT Spine2
      {
        OFFSET 11.9445 1.14441e-005 0
        CHANNELS 3 Zrotation Xrotation Yrotation
        JOINT Spine3
        {
          OFFSET 14.7254 4.19617e-005 0
          CHANNELS 3 Zrotation Xrotation Yrotation
          JOINT Spine4
          {
            OFFSET 10.9679 0 0
            CHANNELS 3 Zrotation Xrotation Yrotation
            JOINT RightShoulder
            {
              OFFSET 2.46616 -1.6653 3.69651
              CHANNELS 3 Zrotation Xrotation Yrotation
              JOINT RightArm
              {
                OFFSET 13.0012 0 0
                CHANNELS 3 Zrotation Xrotation Yrotation
                JOINT RightForeArm
                {
                  OFFSET 28.7848 1.52588e-005 0
                  CHANNELS 3 Zrotation Xrotation Yrotation
                  JOINT RightHand
                  {
                    OFFSET 26.5688 1.52588e-005 0
                    CHANNELS 3 Zrotation Xrotation Yrotation
                    End Site
                    {
                      OFFSET 0 0 0
                    }
                  }
                }
              }
            }
            JOINT LeftShoulder
            {
              OFFSET 2.38034 -1.29275 -3.75231
              CHANNELS 3 Zrotation Xrotation Yrotation
              JOINT LeftArm
              {
                OFFSET 16.3182 6.10352e-005 0
                CHANNELS 3 Zrotation Xrotation Yrotation
                JOINT LeftForeArm
                {
                  OFFSET 27.0901 0 0
                  CHANNELS 3 Zrotation Xrotation Yrotation
                  JOINT LeftHand
                  {
                    OFFSET 24.5451 1.52588e-005 0
                    CHANNELS 3 Zrotation Xrotation Yrotation
                    End Site
                    {
                      OFFSET 0 0 0
                    }
                  }
                }
              }
            }
            JOINT Neck
            {
              OFFSET 5.0226 -0.0266342 0
              CHANNELS 3 Zrotation Xrotation Yrotation
              JOINT Head
              {
                OFFSET 6.69363 2.86102e-005 0
                CHANNELS 3 Zrotation Xrotation Yrotation
                End Site
                {
                  OFFSET 0 0 0
                }
              }
            }
          }
        }
      }
    }
  }
}
MOTION
Frames:	5
Frame Time:	0.0333333
3.10467 95.5207 -0.0669267 90.1847 -89.998 90.2211 -175.752 2.30452 90.8599 -8.34395 4.13196 0.0186041 63.1335 1.64498 0.862991 28.7808 6.20008e-006 3.1992e-007 -179.637 1.88263 90.8058 -7.56746 0.532079 0.0198986 62.7172 -1.12989 -0.570267 28.7808 1.29109e-005 2.55165e-005 0.00290597 6.34077 -90.0368 14.1935 0.000215392 0.00395925 2.52251 0.00169575 0.00358178 -20.0127 0.00307856 0.00627967 -3.36732e-007 0.00307161 0.00628119 101.048 -17.8482 -84.9767 -3.13311 26.3819 -8.62738 -5.8407 -27.4623 -8.0503 1.31036 0.0701125 0.703073 -78.7099 -20.6652 94.9033 13.7784 -29.0203 -7.69356 5.08346 29.2415 -8.23264 -1.62519 -0.0484158 1.1719 1.75172 -0.000924446 0.00277601 -7.40733 -0.000848003 -0.00184259 
3.11289 95.5046 -0.0672488 92.4808 -89.9831 92.5614 -175.713 2.16068 90.9231 -8.0721 4.16979 -0.0571293 63.4002 1.77617 0.946886 28.7808 6.20008e-006 3.1992e-007 -179.638 1.85605 90.8519 -7.51465 0.616831 0.0198989 62.7055 -1.14003 -0.574454 28.7808 1.29109e-005 2.55165e-005 0.00672455 6.34031 -90.0848 14.1935 0.000215392 0.00395925 2.52251 0.00169575 0.00358178 -20.0127 0.00307856 0.00627967 -3.36732e-007 0.00307161 0.00628119 101.063 -17.8556 -84.8945 -3.08787 26.4395 -8.56326 -6.02929 -27.5905 -8.41693 1.2906 0.0723598 0.893493 -78.7235 -20.6915 94.9045 13.7999 -28.9396 -8.00204 4.76455 29.2578 -7.58539 -1.48908 -0.0484199 0.901137 1.72157 -0.0164199 0.0446264 -7.35296 -0.0137548 -0.029361 
3.11737 95.5052 -0.0679128 122.168 -89.9695 122.249 -175.754 2.12731 90.8949 -8.03806 4.16259 0.00460289 63.4034 1.76038 0.938148 28.7808 6.20008e-006 3.1992e-007 -179.633 1.71454 90.8496 -7.25492 0.63491 0.0198989 62.6298 -1.11942 -0.560482 28.7808 1.29109e-005 2.55165e-005 0.00708687 6.34019 -90.0898 14.1935 0.000215392 0.00395925 2.52257 0.00169575 0.00358178 -20.0126 0.00307856 0.00627967 6.20122e-005 0.00307161 0.00628119 101.035 -17.889 -84.893 -3.2009 26.2713 -9.11938 -5.39537 -27.5587 -7.07521 0.988758 0.048364 0.315133 -78.7545 -20.6729 94.8875 13.7798 -28.8903 -8.13402 4.61424 29.2051 -7.29362 -1.37065 -0.0484213 0.790451 1.7165 -0.0366656 0.0469627 -7.34301 -0.0142844 -0.0276579 
3.11972 95.5063 -0.0664408 -172.148 -89.9403 -172.07 -175.737 2.12827 90.8956 -8.13659 4.14991 -0.00156441 63.3922 1.79222 0.954622 28.7808 6.20008e-006 3.1992e-007 -179.634 1.81661 90.847 -7.55497 0.595119 0.0198988 62.7467 -1.13614 -0.573177 28.7808 1.29109e-005 2.55165e-005 0.00562602 6.34085 -90.072 14.1922 0.000215392 0.00395925 2.52126 0.00169575 0.00358178 -20.0139 0.00307856 0.00627967 -0.00124645 0.00307161 0.00628119 100.988 -17.9432 -84.9006 -3.20813 26.4224 -8.83786 -5.79733 -27.6307 -7.91354 1.18542 0.0658371 0.832997 -78.8549 -20.6269 94.7665 13.8022 -28.9507 -7.64992 4.94569 29.1063 -7.98811 -1.4741 -0.0484183 1.01606 1.69908 -0.0015868 0.0340719 -7.3378 -0.00598485 -0.021791 
3.11665 95.5176 -0.0650898 -161.941 -89.9025 -161.842 -175.729 2.05684 90.9204 -8.06347 4.13274 -0.00375757 63.35 1.78296 0.950239 28.7808 6.20008e-006 3.1992e-007 -179.611 1.43658 90.8699 -6.83388 0.621891 0.0198989 62.4266 -1.10937 -0.551425 28.7808 1.29109e-005 2.55165e-005 0.00698872 6.35781 -90.0882 14.1583 0.000215392 0.00395925 2.48737 0.00169575 0.00358178 -20.0478 0.00307856 0.00627967 -0.0351397 0.00307161 0.00628119 101.095 -17.9768 -84.8565 -3.18897 26.532 -8.67117 -6.10922 -27.7729 -8.5339 1.32705 0.0781659 1.12534 -78.7837 -20.5856 94.7195 13.7939 -28.9544 -7.49022 5.04281 29.1067 -8.18451 -1.51282 -0.0484169 1.10915 1.86406 0.0228885 -0.0466057 -7.34503 0.025818 0.0861322 
